<svg xmlns="http://www.w3.org/2000/svg" width="2400" height="1880" viewBox="0 0 2400 1880" role="img" aria-labelledby="title desc">
  <title id="title">School MIS Entity Relationship Diagram</title>
  <desc id="desc">Entity relationship diagram for the School MIS database schema.</desc>
  <defs>
    <style>
      .bg { fill: #f5f7fb; }
      .panel { fill: #ffffff; stroke: #d6deeb; stroke-width: 2; rx: 18; ry: 18; }
      .title { font: 700 30px 'Segoe UI', Arial, sans-serif; fill: #16324f; }
      .subtitle { font: 500 16px 'Segoe UI', Arial, sans-serif; fill: #5c7087; }
      .zone-title { font: 700 22px 'Segoe UI', Arial, sans-serif; fill: #24496b; }
      .zone { fill: #eaf1f8; stroke: #d4dfec; stroke-width: 2; rx: 22; ry: 22; }
      .table { fill: #ffffff; stroke: #365a7a; stroke-width: 2.2; rx: 14; ry: 14; }
      .table-head { fill: #365a7a; rx: 14; ry: 14; }
      .table-title { font: 700 18px 'Segoe UI', Arial, sans-serif; fill: #ffffff; }
      .field { font: 13px Consolas, 'Courier New', monospace; fill: #22394f; }
      .pk { font-weight: 700; fill: #0e4f83; }
      .fk { fill: #8a4b0f; }
      .note { font: 12px 'Segoe UI', Arial, sans-serif; fill: #61778d; }
      .link { stroke: #557a9c; stroke-width: 2.2; fill: none; }
      .link-soft { stroke: #8aa6c0; stroke-width: 1.8; fill: none; }
      .label { font: 12px 'Segoe UI', Arial, sans-serif; fill: #315674; }
    </style>
    <marker id="arrow" markerWidth="10" markerHeight="10" refX="8" refY="5" orient="auto" markerUnits="strokeWidth">
      <path d="M0,0 L10,5 L0,10 z" fill="#557a9c" />
    </marker>
  </defs>

  <rect class="bg" x="0" y="0" width="2400" height="1880" />
  <rect class="panel" x="24" y="24" width="2352" height="1832" />
  <text class="title" x="56" y="72">School MIS Entity Relationship Diagram</text>
  <text class="subtitle" x="56" y="102">Generated from Laravel migration 2026_04_11_000100_create_mis_core_tables.php and the base users table.</text>

  <rect class="zone" x="44" y="136" width="560" height="520" />
  <text class="zone-title" x="68" y="174">Identity and Access</text>

  <rect class="zone" x="624" y="136" width="760" height="690" />
  <text class="zone-title" x="648" y="174">Academic Structure</text>

  <rect class="zone" x="1408" y="136" width="948" height="760" />
  <text class="zone-title" x="1432" y="174">Students, Grades, and Attendance</text>

  <rect class="zone" x="624" y="850" width="820" height="500" />
  <text class="zone-title" x="648" y="888">Finance</text>

  <rect class="zone" x="44" y="680" width="560" height="620" />
  <text class="zone-title" x="68" y="718">Staff Performance and Communications</text>

  <rect class="zone" x="1468" y="920" width="888" height="400" />
  <text class="zone-title" x="1492" y="958">Scheduling and Audit</text>

  <g id="guardians" transform="translate(72,204)">
    <rect class="table" width="220" height="128" />
    <rect class="table-head" width="220" height="30" />
    <text class="table-title" x="12" y="21">guardians</text>
    <text class="field pk" x="12" y="50">PK id uuid</text>
    <text class="field" x="12" y="68">first_name</text>
    <text class="field" x="12" y="86">last_name</text>
    <text class="field" x="12" y="104">phone, email</text>
    <text class="field" x="12" y="122">relationship</text>
  </g>

  <g id="users" transform="translate(332,204)">
    <rect class="table" width="236" height="146" />
    <rect class="table-head" width="236" height="30" />
    <text class="table-title" x="12" y="21">users</text>
    <text class="field pk" x="12" y="50">PK id uuid</text>
    <text class="field" x="12" y="68">username</text>
    <text class="field fk" x="12" y="86">FK staff_id uuid</text>
    <text class="field fk" x="12" y="104">FK guardian_id uuid</text>
    <text class="field" x="12" y="122">is_active</text>
    <text class="field" x="12" y="140">last_login_at</text>
  </g>

  <g id="staff" transform="translate(332,392)">
    <rect class="table" width="236" height="146" />
    <rect class="table-head" width="236" height="30" />
    <text class="table-title" x="12" y="21">staff</text>
    <text class="field pk" x="12" y="50">PK id uuid</text>
    <text class="field" x="12" y="68">employee_number</text>
    <text class="field" x="12" y="86">first_name, last_name</text>
    <text class="field" x="12" y="104">job_title, status</text>
    <text class="field" x="12" y="122">phone, email</text>
    <text class="field" x="12" y="140">hire_date</text>
  </g>

  <g id="roles" transform="translate(72,392)">
    <rect class="table" width="180" height="110" />
    <rect class="table-head" width="180" height="30" />
    <text class="table-title" x="12" y="21">roles</text>
    <text class="field pk" x="12" y="50">PK id</text>
    <text class="field" x="12" y="68">name</text>
    <text class="field" x="12" y="86">description</text>
  </g>

  <g id="permissions" transform="translate(72,526)">
    <rect class="table" width="180" height="110" />
    <rect class="table-head" width="180" height="30" />
    <text class="table-title" x="12" y="21">permissions</text>
    <text class="field pk" x="12" y="50">PK id</text>
    <text class="field" x="12" y="68">name</text>
    <text class="field" x="12" y="86">description</text>
  </g>

  <g id="role_permission" transform="translate(270,548)">
    <rect class="table" width="210" height="90" />
    <rect class="table-head" width="210" height="30" />
    <text class="table-title" x="12" y="21">role_permission</text>
    <text class="field fk" x="12" y="54">FK role_id</text>
    <text class="field fk" x="12" y="72">FK permission_id</text>
  </g>

  <g id="staff_role" transform="translate(270,646)">
    <rect class="table" width="210" height="90" />
    <rect class="table-head" width="210" height="30" />
    <text class="table-title" x="12" y="21">staff_role</text>
    <text class="field fk" x="12" y="54">FK staff_id uuid</text>
    <text class="field fk" x="12" y="72">FK role_id</text>
  </g>

  <g id="academic_years" transform="translate(652,204)">
    <rect class="table" width="210" height="128" />
    <rect class="table-head" width="210" height="30" />
    <text class="table-title" x="12" y="21">academic_years</text>
    <text class="field pk" x="12" y="50">PK id</text>
    <text class="field" x="12" y="68">name</text>
    <text class="field" x="12" y="86">start_date</text>
    <text class="field" x="12" y="104">end_date</text>
    <text class="field" x="12" y="122">is_current</text>
  </g>

  <g id="terms" transform="translate(920,204)">
    <rect class="table" width="210" height="128" />
    <rect class="table-head" width="210" height="30" />
    <text class="table-title" x="12" y="21">terms</text>
    <text class="field pk" x="12" y="50">PK id</text>
    <text class="field fk" x="12" y="68">FK academic_year_id</text>
    <text class="field" x="12" y="86">name</text>
    <text class="field" x="12" y="104">start_date, end_date</text>
    <text class="field" x="12" y="122">is_current</text>
  </g>

  <g id="class_rooms" transform="translate(1188,204)">
    <rect class="table" width="160" height="128" />
    <rect class="table-head" width="160" height="30" />
    <text class="table-title" x="12" y="21">class_rooms</text>
    <text class="field pk" x="12" y="50">PK id</text>
    <text class="field" x="12" y="68">name, stream</text>
    <text class="field" x="12" y="86">section</text>
    <text class="field fk" x="12" y="104">FK class_teacher_id</text>
    <text class="field" x="12" y="122">timestamps</text>
  </g>

  <g id="subjects" transform="translate(652,386)">
    <rect class="table" width="180" height="110" />
    <rect class="table-head" width="180" height="30" />
    <text class="table-title" x="12" y="21">subjects</text>
    <text class="field pk" x="12" y="50">PK id</text>
    <text class="field" x="12" y="68">name</text>
    <text class="field" x="12" y="86">code, is_core</text>
  </g>

  <g id="class_subjects" transform="translate(920,386)">
    <rect class="table" width="210" height="128" />
    <rect class="table-head" width="210" height="30" />
    <text class="table-title" x="12" y="21">class_subjects</text>
    <text class="field pk" x="12" y="50">PK id</text>
    <text class="field fk" x="12" y="68">FK class_room_id</text>
    <text class="field fk" x="12" y="86">FK subject_id</text>
    <text class="field fk" x="12" y="104">FK teacher_id uuid</text>
    <text class="field" x="12" y="122">unique class + subject</text>
  </g>

  <g id="assessment_types" transform="translate(652,550)">
    <rect class="table" width="180" height="110" />
    <rect class="table-head" width="180" height="30" />
    <text class="table-title" x="12" y="21">assessment_types</text>
    <text class="field pk" x="12" y="50">PK id</text>
    <text class="field" x="12" y="68">name</text>
    <text class="field" x="12" y="86">weight</text>
  </g>

  <g id="assessments" transform="translate(920,550)">
    <rect class="table" width="240" height="146" />
    <rect class="table-head" width="240" height="30" />
    <text class="table-title" x="12" y="21">assessments</text>
    <text class="field pk" x="12" y="50">PK id uuid</text>
    <text class="field fk" x="12" y="68">FK class_subject_id</text>
    <text class="field fk" x="12" y="86">FK term_id</text>
    <text class="field fk" x="12" y="104">FK assessment_type_id</text>
    <text class="field" x="12" y="122">title, max_score</text>
    <text class="field" x="12" y="140">assessment_date</text>
  </g>

  <g id="students" transform="translate(1436,204)">
    <rect class="table" width="230" height="146" />
    <rect class="table-head" width="230" height="30" />
    <text class="table-title" x="12" y="21">students</text>
    <text class="field pk" x="12" y="50">PK id uuid</text>
    <text class="field" x="12" y="68">admission_number</text>
    <text class="field" x="12" y="86">first_name, last_name</text>
    <text class="field" x="12" y="104">gender, status</text>
    <text class="field fk" x="12" y="122">FK current_class_room_id</text>
    <text class="field" x="12" y="140">enrollment_date</text>
  </g>

  <g id="student_guardian" transform="translate(1710,204)">
    <rect class="table" width="230" height="110" />
    <rect class="table-head" width="230" height="30" />
    <text class="table-title" x="12" y="21">student_guardian</text>
    <text class="field fk" x="12" y="50">FK student_id uuid</text>
    <text class="field fk" x="12" y="68">FK guardian_id uuid</text>
    <text class="field" x="12" y="86">is_primary, notes</text>
  </g>

  <g id="class_enrollments" transform="translate(1984,204)">
    <rect class="table" width="236" height="128" />
    <rect class="table-head" width="236" height="30" />
    <text class="table-title" x="12" y="21">class_enrollments</text>
    <text class="field pk" x="12" y="50">PK id uuid</text>
    <text class="field fk" x="12" y="68">FK student_id uuid</text>
    <text class="field fk" x="12" y="86">FK class_room_id, term_id</text>
    <text class="field" x="12" y="104">enrollment_date</text>
    <text class="field" x="12" y="122">status</text>
  </g>

  <g id="student_grades" transform="translate(1436,422)">
    <rect class="table" width="250" height="146" />
    <rect class="table-head" width="250" height="30" />
    <text class="table-title" x="12" y="21">student_grades</text>
    <text class="field pk" x="12" y="50">PK id uuid</text>
    <text class="field fk" x="12" y="68">FK student_id uuid</text>
    <text class="field fk" x="12" y="86">FK assessment_id uuid</text>
    <text class="field" x="12" y="104">score, grade_letter</text>
    <text class="field fk" x="12" y="122">FK recorded_by uuid</text>
    <text class="field" x="12" y="140">recorded_at</text>
  </g>

  <g id="student_grade_histories" transform="translate(1718,404)">
    <rect class="table" width="270" height="164" />
    <rect class="table-head" width="270" height="30" />
    <text class="table-title" x="12" y="21">student_grade_histories</text>
    <text class="field pk" x="12" y="50">PK id uuid</text>
    <text class="field fk" x="12" y="68">FK student_id uuid</text>
    <text class="field fk" x="12" y="86">FK class_room_id</text>
    <text class="field fk" x="12" y="104">FK academic_year_id</text>
    <text class="field" x="12" y="122">final_average, position</text>
    <text class="field" x="12" y="140">promotion_status</text>
    <text class="field" x="12" y="158">timestamps</text>
  </g>

  <g id="attendance" transform="translate(2012,404)">
    <rect class="table" width="220" height="146" />
    <rect class="table-head" width="220" height="30" />
    <text class="table-title" x="12" y="21">attendance</text>
    <text class="field pk" x="12" y="50">PK id uuid</text>
    <text class="field fk" x="12" y="68">FK student_id uuid</text>
    <text class="field fk" x="12" y="86">FK class_room_id</text>
    <text class="field" x="12" y="104">attendance_date</text>
    <text class="field" x="12" y="122">status</text>
    <text class="field fk" x="12" y="140">FK recorded_by uuid</text>
  </g>

  <g id="fee_structures" transform="translate(652,920)">
    <rect class="table" width="250" height="146" />
    <rect class="table-head" width="250" height="30" />
    <text class="table-title" x="12" y="21">fee_structures</text>
    <text class="field pk" x="12" y="50">PK id</text>
    <text class="field fk" x="12" y="68">FK class_room_id</text>
    <text class="field fk" x="12" y="86">FK academic_year_id</text>
    <text class="field fk" x="12" y="104">FK term_id</text>
    <text class="field" x="12" y="122">total_amount</text>
    <text class="field" x="12" y="140">timestamps</text>
  </g>

  <g id="fee_items" transform="translate(946,920)">
    <rect class="table" width="210" height="110" />
    <rect class="table-head" width="210" height="30" />
    <text class="table-title" x="12" y="21">fee_items</text>
    <text class="field pk" x="12" y="50">PK id</text>
    <text class="field fk" x="12" y="68">FK fee_structure_id</text>
    <text class="field" x="12" y="86">name, amount</text>
  </g>

  <g id="student_fee_accounts" transform="translate(1200,920)">
    <rect class="table" width="236" height="128" />
    <rect class="table-head" width="236" height="30" />
    <text class="table-title" x="12" y="21">student_fee_accounts</text>
    <text class="field pk" x="12" y="50">PK id uuid</text>
    <text class="field fk" x="12" y="68">FK student_id uuid</text>
    <text class="field fk" x="12" y="86">FK fee_structure_id</text>
    <text class="field" x="12" y="104">balance</text>
    <text class="field" x="12" y="122">timestamps</text>
  </g>

  <g id="payments" transform="translate(946,1100)">
    <rect class="table" width="240" height="146" />
    <rect class="table-head" width="240" height="30" />
    <text class="table-title" x="12" y="21">payments</text>
    <text class="field pk" x="12" y="50">PK id uuid</text>
    <text class="field fk" x="12" y="68">FK student_fee_account_id</text>
    <text class="field" x="12" y="86">amount_paid, payment_date</text>
    <text class="field" x="12" y="104">payment_method</text>
    <text class="field" x="12" y="122">receipt_number</text>
    <text class="field fk" x="12" y="140">FK recorded_by uuid</text>
  </g>

  <g id="staff_assessments" transform="translate(72,756)">
    <rect class="table" width="250" height="146" />
    <rect class="table-head" width="250" height="30" />
    <text class="table-title" x="12" y="21">staff_assessments</text>
    <text class="field pk" x="12" y="50">PK id uuid</text>
    <text class="field fk" x="12" y="68">FK staff_id uuid</text>
    <text class="field fk" x="12" y="86">FK evaluator_id uuid</text>
    <text class="field fk" x="12" y="104">FK academic_year_id, term_id</text>
    <text class="field" x="12" y="122">score, comments</text>
    <text class="field" x="12" y="140">assessment_date</text>
  </g>

  <g id="staff_assessment_histories" transform="translate(72,948)">
    <rect class="table" width="250" height="128" />
    <rect class="table-head" width="250" height="30" />
    <text class="table-title" x="12" y="21">staff_assessment_histories</text>
    <text class="field pk" x="12" y="50">PK id uuid</text>
    <text class="field fk" x="12" y="68">FK staff_id uuid</text>
    <text class="field fk" x="12" y="86">FK academic_year_id</text>
    <text class="field" x="12" y="104">overall_rating</text>
    <text class="field" x="12" y="122">promotion_recommendation</text>
  </g>

  <g id="announcements" transform="translate(352,756)">
    <rect class="table" width="210" height="128" />
    <rect class="table-head" width="210" height="30" />
    <text class="table-title" x="12" y="21">announcements</text>
    <text class="field pk" x="12" y="50">PK id uuid</text>
    <text class="field" x="12" y="68">title</text>
    <text class="field" x="12" y="86">message, audience</text>
    <text class="field fk" x="12" y="104">FK created_by uuid</text>
    <text class="field" x="12" y="122">timestamps</text>
  </g>

  <g id="timetables" transform="translate(1496,1000)">
    <rect class="table" width="220" height="128" />
    <rect class="table-head" width="220" height="30" />
    <text class="table-title" x="12" y="21">timetables</text>
    <text class="field pk" x="12" y="50">PK id</text>
    <text class="field fk" x="12" y="68">FK class_subject_id</text>
    <text class="field" x="12" y="86">day_of_week</text>
    <text class="field" x="12" y="104">start_time, end_time</text>
    <text class="field" x="12" y="122">room</text>
  </g>

  <g id="audit_logs" transform="translate(1784,1000)">
    <rect class="table" width="250" height="146" />
    <rect class="table-head" width="250" height="30" />
    <text class="table-title" x="12" y="21">audit_logs</text>
    <text class="field pk" x="12" y="50">PK id uuid</text>
    <text class="field fk" x="12" y="68">FK user_id uuid</text>
    <text class="field" x="12" y="86">action, table_name</text>
    <text class="field" x="12" y="104">record_id</text>
    <text class="field" x="12" y="122">ip_address</text>
    <text class="field" x="12" y="140">context json</text>
  </g>

  <line class="link" x1="292" y1="267" x2="332" y2="267" marker-end="url(#arrow)" />
  <text class="label" x="304" y="255">guardian_id</text>
  <line class="link" x1="450" y1="350" x2="450" y2="392" marker-end="url(#arrow)" />
  <text class="label" x="458" y="378">staff_id</text>
  <line class="link" x1="252" y1="447" x2="270" y2="447" marker-end="url(#arrow)" />
  <line class="link" x1="252" y1="581" x2="270" y2="581" marker-end="url(#arrow)" />
  <line class="link" x1="388" y1="538" x2="388" y2="548" marker-end="url(#arrow)" />
  <line class="link" x1="450" y1="538" x2="450" y2="646" marker-end="url(#arrow)" />

  <line class="link" x1="862" y1="267" x2="920" y2="267" marker-end="url(#arrow)" />
  <text class="label" x="875" y="255">1 to many</text>
  <line class="link" x1="1268" y1="350" x2="1550" y2="350" marker-end="url(#arrow)" />
  <text class="label" x="1368" y="338">current_class_room_id</text>
  <line class="link" x1="832" y1="441" x2="920" y2="441" marker-end="url(#arrow)" />
  <line class="link" x1="1130" y1="441" x2="1188" y2="267" marker-end="url(#arrow)" />
  <line class="link" x1="1025" y1="514" x2="1025" y2="550" marker-end="url(#arrow)" />
  <line class="link" x1="832" y1="605" x2="920" y2="605" marker-end="url(#arrow)" />
  <line class="link" x1="1025" y1="332" x2="1025" y2="550" marker-end="url(#arrow)" />
  <line class="link" x1="1188" y1="267" x2="1188" y2="441" marker-end="url(#arrow)" />
  <line class="link" x1="568" y1="465" x2="920" y2="465" marker-end="url(#arrow)" />
  <text class="label" x="726" y="452">teacher_id</text>

  <line class="link" x1="1666" y1="267" x2="1710" y2="267" marker-end="url(#arrow)" />
  <line class="link" x1="292" y1="267" x2="1710" y2="285" marker-end="url(#arrow)" />
  <text class="label" x="990" y="294">many to many via student_guardian</text>
  <line class="link" x1="1666" y1="268" x2="1984" y2="268" marker-end="url(#arrow)" />
  <line class="link" x1="1268" y1="267" x2="1984" y2="286" marker-end="url(#arrow)" />
  <line class="link" x1="1025" y1="332" x2="2084" y2="332" marker-end="url(#arrow)" />
  <text class="label" x="1500" y="320">term_id</text>

  <line class="link" x1="1160" y1="623" x2="1436" y2="495" marker-end="url(#arrow)" />
  <text class="label" x="1222" y="548">assessment_id</text>
  <line class="link" x1="1550" y1="350" x2="1550" y2="422" marker-end="url(#arrow)" />
  <text class="label" x="1560" y="390">student_id</text>
  <line class="link" x1="568" y1="465" x2="1436" y2="532" marker-end="url(#arrow)" />
  <text class="label" x="960" y="520">recorded_by</text>
  <line class="link" x1="1550" y1="350" x2="1853" y2="404" marker-end="url(#arrow)" />
  <line class="link" x1="1268" y1="267" x2="1853" y2="422" marker-end="url(#arrow)" />
  <line class="link" x1="757" y1="332" x2="1853" y2="440" marker-end="url(#arrow)" />

  <line class="link" x1="1550" y1="350" x2="2122" y2="404" marker-end="url(#arrow)" />
  <line class="link" x1="1268" y1="267" x2="2122" y2="422" marker-end="url(#arrow)" />
  <line class="link" x1="568" y1="465" x2="2122" y2="440" marker-end="url(#arrow)" />

  <line class="link" x1="1268" y1="267" x2="777" y2="920" marker-end="url(#arrow)" />
  <line class="link" x1="757" y1="332" x2="777" y2="920" marker-end="url(#arrow)" />
  <line class="link" x1="1025" y1="332" x2="777" y2="920" marker-end="url(#arrow)" />
  <text class="label" x="796" y="868">class_room_id, academic_year_id, term_id</text>
  <line class="link" x1="902" y1="975" x2="946" y2="975" marker-end="url(#arrow)" />
  <line class="link" x1="1666" y1="286" x2="1200" y2="975" marker-end="url(#arrow)" />
  <text class="label" x="1362" y="730">student_id</text>
  <line class="link" x1="902" y1="993" x2="1200" y2="993" marker-end="url(#arrow)" />
  <text class="label" x="1022" y="981">fee_structure_id</text>
  <line class="link" x1="1318" y1="1048" x2="1066" y2="1100" marker-end="url(#arrow)" />
  <text class="label" x="1138" y="1086">student_fee_account_id</text>
  <line class="link" x1="568" y1="465" x2="1066" y2="1228" marker-end="url(#arrow)" />
  <text class="label" x="780" y="1008">recorded_by</text>

  <line class="link" x1="322" y1="829" x2="352" y2="829" marker-end="url(#arrow)" />
  <text class="label" x="332" y="816">created_by</text>
  <line class="link" x1="322" y1="811" x2="652" y2="267" marker-end="url(#arrow)" />
  <line class="link" x1="322" y1="829" x2="920" y2="267" marker-end="url(#arrow)" />
  <text class="label" x="514" y="610">academic_year_id, term_id</text>
  <line class="link-soft" x1="322" y1="977" x2="652" y2="267" marker-end="url(#arrow)" />
  <text class="label" x="360" y="652">academic_year_id</text>
  <line class="link-soft" x1="322" y1="995" x2="450" y2="538" marker-end="url(#arrow)" />
  <text class="label" x="338" y="832">staff_id</text>

  <line class="link" x1="1130" y1="450" x2="1496" y2="1064" marker-end="url(#arrow)" />
  <text class="label" x="1290" y="792">class_subject_id</text>
  <line class="link" x1="568" y1="277" x2="1784" y2="1068" marker-end="url(#arrow)" />
  <text class="label" x="1100" y="740">user_id</text>

  <text class="note" x="68" y="1342">Legend: blue text marks primary keys; brown text marks foreign keys. Arrows point from child tables toward their referenced parent tables.</text>
  <text class="note" x="68" y="1362">Core many-to-many bridges: student_guardian, staff_role, role_permission, and class_subjects.</text>
</svg>
